<svg width="24" height="24" viewBox="0 0 24 24" fill="none" xmlns="http://www.w3.org/2000/svg">
<path d="M14.8219 15.7734C14.6855 15.7369 14.5692 15.6476 14.4986 15.5253C14.4279 15.403 14.4088 15.2576 14.4453 15.1212L15.867 9.81535L6.83335 15.0309C6.71102 15.1016 6.56565 15.1207 6.42921 15.0841C6.29277 15.0476 6.17645 14.9583 6.10582 14.836C6.0352 14.7137 6.01606 14.5683 6.05262 14.4319C6.08917 14.2954 6.17844 14.1791 6.30076 14.1085L15.3344 8.89287L10.0286 7.4712C9.96104 7.4531 9.89771 7.42186 9.84222 7.37928C9.78674 7.3367 9.74018 7.28361 9.70521 7.22304C9.67024 7.16246 9.64755 7.0956 9.63842 7.02625C9.62929 6.95691 9.63392 6.88645 9.65202 6.81889C9.67013 6.75133 9.70136 6.688 9.74394 6.63251C9.78652 6.57702 9.83961 6.53047 9.90019 6.4955C9.96076 6.46053 10.0276 6.43784 10.097 6.42871C10.1663 6.41958 10.2368 6.4242 10.3043 6.44231L16.8521 8.19678C16.8545 8.1974 16.8567 8.19835 16.859 8.19901C16.8735 8.2031 16.8879 8.2076 16.902 8.21289C16.9099 8.21585 16.9174 8.21948 16.9251 8.22279C16.9333 8.22634 16.9417 8.22967 16.9499 8.23366C16.9582 8.23776 16.9661 8.24249 16.9742 8.24702C16.9813 8.25097 16.9885 8.25467 16.9954 8.25896C17.0031 8.26375 17.0104 8.26908 17.0178 8.27422C17.0247 8.27901 17.0317 8.28359 17.0384 8.28871C17.0452 8.29389 17.0515 8.29956 17.058 8.30505C17.0648 8.31081 17.0717 8.3164 17.0783 8.32253C17.0843 8.32823 17.0899 8.33435 17.0957 8.34032C17.102 8.34681 17.1085 8.35312 17.1145 8.35998C17.1207 8.36711 17.1264 8.37467 17.1322 8.38208C17.1371 8.38833 17.1423 8.39426 17.1469 8.40074C17.1571 8.41502 17.1667 8.42973 17.1755 8.44493C17.1842 8.46013 17.1922 8.47577 17.1995 8.49178C17.2028 8.49904 17.2053 8.50646 17.2083 8.51383C17.2118 8.52257 17.2155 8.53123 17.2186 8.5402C17.2215 8.54883 17.2237 8.55761 17.2262 8.56632C17.2285 8.57432 17.231 8.58221 17.2329 8.59031C17.2349 8.59904 17.2363 8.60786 17.2379 8.61663C17.2394 8.62499 17.2411 8.63329 17.2422 8.64173C17.2433 8.65007 17.2438 8.65844 17.2445 8.66682C17.2452 8.67581 17.2462 8.68479 17.2465 8.69385C17.2468 8.702 17.2464 8.71007 17.2463 8.71816C17.2461 8.72743 17.2463 8.73667 17.2456 8.74596C17.245 8.75498 17.2437 8.76392 17.2426 8.77287C17.2417 8.78116 17.2411 8.78946 17.2397 8.79777C17.2372 8.81291 17.2338 8.82787 17.2301 8.84275C17.2295 8.84483 17.2293 8.84696 17.2287 8.84905L15.4742 15.3968C15.4561 15.4644 15.4249 15.5277 15.3823 15.5832C15.3397 15.6387 15.2866 15.6853 15.2261 15.7202C15.1655 15.7552 15.0986 15.7779 15.0293 15.787C14.9599 15.7962 14.8895 15.7915 14.8219 15.7734Z" fill="#43C3A3"/>
</svg>
