<svg width="50" height="50" viewBox="0 0 50 50" fill="none" xmlns="http://www.w3.org/2000/svg">
<path d="M16.6804 32.6676C16.3015 32.2858 16.2722 31.6887 16.5908 31.2735L16.6863 31.165L31.7716 16.1985C32.1881 15.7852 32.8609 15.7878 33.2742 16.2044C33.653 16.5863 33.6823 17.1834 33.3637 17.5986L33.2682 17.707L18.183 32.6735C17.7664 33.0868 17.0937 33.0842 16.6804 32.6676Z" fill="#010101"/>
<path d="M20.4228 17.9932C19.836 17.9922 19.3612 17.5156 19.3622 16.9288C19.3632 16.3953 19.7571 15.9544 20.2696 15.8794L20.4266 15.8682L32.5216 15.8899C33.0566 15.8909 33.4983 16.2871 33.5715 16.8013L33.5821 16.9588L33.5093 29.0546C33.5058 29.6414 33.0272 30.1142 32.4405 30.1107C31.907 30.1075 31.4677 29.7117 31.3949 29.1989L31.3844 29.0418L31.4501 18.013L20.4228 17.9932Z" fill="#010101"/>
</svg>
