<svg width="58" height="58" viewBox="0 0 58 58" fill="none" xmlns="http://www.w3.org/2000/svg">
<path opacity="0.4" d="M47.995 19.5504C47.995 19.9129 47.9951 20.2754 47.9709 20.6137C44.2734 19.2362 39.9234 20.082 37.0234 22.692C35.0659 20.9279 32.5284 19.937 29.8217 19.937C23.8767 19.937 19.0434 24.7945 19.0434 30.7879C19.0434 37.627 22.475 42.6295 25.7617 45.8679C25.4959 45.8437 25.2784 45.7954 25.0851 45.7229C18.8259 43.572 4.83337 34.6787 4.83337 19.5504C4.83337 12.8804 10.1984 7.49121 16.82 7.49121C20.7592 7.49121 24.2392 9.37619 26.4142 12.3004C28.6134 9.37619 32.0934 7.49121 36.0084 7.49121C42.63 7.49121 47.995 12.8804 47.995 19.5504Z" fill="#010101"/>
<path d="M43.5001 23.1758C40.9143 23.1758 38.5701 24.4325 37.1201 26.3658C35.6701 24.4325 33.3501 23.1758 30.7401 23.1758C26.3418 23.1758 22.7651 26.7525 22.7651 31.1991C22.7651 32.915 23.031 34.4858 23.5143 35.9358C25.786 43.1133 32.7701 47.3908 36.2259 48.575C36.7092 48.7441 37.5068 48.7441 38.0143 48.575C41.4701 47.3908 48.4542 43.1133 50.7259 35.9358C51.2092 34.4616 51.4751 32.8908 51.4751 31.1991C51.4751 26.7525 47.8984 23.1758 43.5001 23.1758Z" fill="#010101"/>
</svg>
