<svg width="58" height="59" viewBox="0 0 58 59" fill="none" xmlns="http://www.w3.org/2000/svg">
<path opacity="0.4" d="M53.1667 15.5794V27.9044C53.1667 30.9735 52.1517 33.5594 50.3392 35.3477C48.5509 37.1602 45.965 38.1752 42.8959 38.1752V42.5494C42.8959 44.1927 41.0592 45.1836 39.7059 44.2653L37.3617 42.7186C37.5792 41.9694 37.6759 41.1477 37.6759 40.2777V30.442C37.6759 25.512 34.3892 22.2253 29.4592 22.2253H13.05C12.7117 22.2253 12.3975 22.2495 12.0834 22.2736V15.5794C12.0834 9.41693 16.1917 5.30859 22.3542 5.30859H42.8959C49.0584 5.30859 53.1667 9.41693 53.1667 15.5794Z" fill="#030203"/>
<path d="M37.6759 30.4423V40.278C37.6759 41.148 37.5792 41.9697 37.3617 42.7189C36.4676 46.2714 33.5192 48.4947 29.4592 48.4947H22.8859L15.5875 53.3523C14.5 54.1014 13.05 53.3039 13.05 51.9989V48.4947C10.585 48.4947 8.53088 47.6731 7.10505 46.2473C5.65505 44.7973 4.83337 42.743 4.83337 40.278V30.4423C4.83337 25.8506 7.68504 22.6848 12.0834 22.274C12.3975 22.2498 12.7117 22.2256 13.05 22.2256H29.4592C34.3892 22.2256 37.6759 25.5123 37.6759 30.4423Z" fill="#030203"/>
</svg>
