<svg width="36" height="36" viewBox="0 0 36 36" fill="none" xmlns="http://www.w3.org/2000/svg">
<path d="M26.9861 11.5003C26.9993 11.7377 27.0059 11.8564 27.0712 11.9235C27.1365 11.9906 27.2576 12.0005 27.4999 12.0205C30.5797 12.2745 33 14.8546 33 18C33 21.3137 30.3137 24 27 24H26C25.7643 24 25.6465 24 25.5732 23.9268C25.5 23.8536 25.5 23.7357 25.5 23.5V19C25.5 17.1144 25.5 16.1716 24.9142 15.5858C24.3284 15 23.3856 15 21.5 15H14.5C12.6144 15 11.6716 15 11.0858 15.5858C10.5 16.1716 10.5 17.1144 10.5 19V23.5C10.5 23.7357 10.5 23.8536 10.4268 23.9268C10.3536 24 10.2357 24 10 24H9C5.68629 24 3 21.3137 3 18C3 14.8546 5.42031 12.2745 8.50015 12.0205C8.74238 12.0005 8.86349 11.9906 8.92878 11.9235C8.99408 11.8564 9.00068 11.7377 9.01389 11.5003C9.03728 11.0795 9.09026 10.6598 9.17293 10.2442C9.44225 8.89023 10.0194 7.61636 10.8598 6.52115C11.7002 5.42593 12.7813 4.53872 14.0194 3.92815C15.2575 3.31757 16.6195 3 18 3C19.3805 3 20.7425 3.31757 21.9806 3.92815C23.2187 4.53872 24.2998 5.42593 25.1402 6.52115C25.9806 7.61636 26.5578 8.89022 26.8271 10.2442C26.9097 10.6598 26.9627 11.0795 26.9861 11.5003Z" fill="white"/>
<path fill-rule="evenodd" clip-rule="evenodd" d="M12.5858 17.0858C12 17.6716 12 18.6144 12 20.5V27.5C12 29.3856 12 30.3284 12.5858 30.9142C13.1716 31.5 14.1144 31.5 16 31.5H20C21.8856 31.5 22.8284 31.5 23.4142 30.9142C24 30.3284 24 29.3856 24 27.5V20.5C24 18.6144 24 17.6716 23.4142 17.0858C22.8284 16.5 21.8856 16.5 20 16.5H16C14.1144 16.5 13.1716 16.5 12.5858 17.0858ZM17.25 23C16.6977 23 16.25 23.4477 16.25 24C16.25 24.5523 16.6977 25 17.25 25H18.75C19.3023 25 19.75 24.5523 19.75 24C19.75 23.4477 19.3023 23 18.75 23H17.25Z" fill="white"/>
</svg>
