<svg width="58" height="58" viewBox="0 0 58 58" fill="none" xmlns="http://www.w3.org/2000/svg">
<path opacity="0.4" d="M26.4867 4.97824L13.1951 9.95658C10.6576 10.9232 8.57922 13.9199 8.57922 16.6507V36.2257C8.57922 38.1832 9.86006 40.7691 11.4309 41.9291L24.7226 51.8616C27.0667 53.6257 30.9092 53.6257 33.2534 51.8616L46.5451 41.9291C48.1159 40.7449 49.3967 38.1832 49.3967 36.2257V16.6507C49.3967 13.9441 47.3184 10.9232 44.7809 9.98074L31.4892 5.00241C30.1359 4.47074 27.8642 4.47074 26.4867 4.97824Z" fill="#050205"/>
<path d="M25.7617 34.3895C25.3026 34.3895 24.8434 34.2204 24.4809 33.8579L20.5901 29.967C19.8892 29.2662 19.8892 28.1062 20.5901 27.4054C21.2909 26.7045 22.4509 26.7045 23.1517 27.4054L25.7617 30.0154L34.8726 20.9045C35.5734 20.2037 36.7334 20.2037 37.4342 20.9045C38.1351 21.6054 38.1351 22.7654 37.4342 23.4662L27.0426 33.8579C26.6801 34.2204 26.2209 34.3895 25.7617 34.3895Z" fill="#050205"/>
</svg>
