<svg width="58" height="58" viewBox="0 0 58 58" fill="none" xmlns="http://www.w3.org/2000/svg">
<path opacity="0.4" d="M44.4182 31.0303V42.9444C44.4182 46.0136 42.0257 49.3003 39.1499 50.2669L31.4407 52.8286C30.0874 53.2878 27.8882 53.2878 26.559 52.8286L18.8499 50.2669C15.9499 49.3003 13.5815 46.0136 13.5815 42.9444L13.6057 31.0303L24.2874 37.9903C26.8974 39.7061 31.199 39.7061 33.809 37.9903L44.4182 31.0303Z" fill="#010101"/>
<path d="M48.2852 15.6115L33.8093 6.11402C31.1993 4.39819 26.8977 4.39819 24.2877 6.11402L9.73934 15.6115C5.07517 18.6324 5.07517 25.4715 9.73934 28.5165L13.606 31.0299L24.2877 37.9899C26.8977 39.7057 31.1993 39.7057 33.8093 37.9899L44.4185 31.0299L47.7293 28.8549V36.2499C47.7293 37.2407 48.551 38.0624 49.5418 38.0624C50.5327 38.0624 51.3543 37.2407 51.3543 36.2499V24.3599C52.321 21.2424 51.3302 17.6174 48.2852 15.6115Z" fill="#010101"/>
</svg>
